<?xml version="1.0" encoding="UTF-8"?>
<!-- Created with Inkscape (http://www.inkscape.org/) -->
<svg width="500" height="500" version="1.1" viewBox="0 0 132.29 132.29" xml:space="preserve" xmlns="http://www.w3.org/2000/svg" xmlns:xlink="http://www.w3.org/1999/xlink"><defs><radialGradient id="SVGID_2_" cx="197.64" cy="-371.86" r="0" gradientTransform="matrix(.26458 0 0 -.26458 -56.558 -102.26)" gradientUnits="userSpaceOnUse"><stop stop-color="#FFF" offset="0"/><stop stop-color="#EAEAEB" offset=".4835"/><stop stop-color="#A9ABAE" offset=".9451"/><stop stop-color="#999B9E" offset="1"/></radialGradient><linearGradient id="SVGID_11_" x1="390.04" x2="390.04" y1="485.68" y2="485.68" gradientTransform="translate(-422.29 -514.96)" gradientUnits="userSpaceOnUse"><stop stop-color="#FFF" offset="0"/><stop stop-color="#F9F9F9" offset=".7473"/><stop stop-color="#D5D7D8" offset="1"/></linearGradient><linearGradient id="SVGID_38_" x1="390.04" x2="390.04" y1="485.68" y2="485.68" gradientTransform="matrix(.26458 0 0 .26458 -107.46 -132.38)" gradientUnits="userSpaceOnUse"><stop stop-color="#FFF" offset="0"/><stop stop-color="#FFF" offset=".6538"/><stop stop-color="#CBCCCE" offset="1"/></linearGradient><linearGradient id="linearGradient29409" x1="390.04" x2="390.04" y1="485.68" y2="485.68" gradientTransform="matrix(.26458 0 0 .26458 -107.46 -132.38)" gradientUnits="userSpaceOnUse" xlink:href="#SVGID_11_"/><radialGradient id="SVGID_2_-1" cx="197.64" cy="-371.86" r="0" gradientTransform="matrix(.26458 0 0 -.26458 -56.558 -102.26)" gradientUnits="userSpaceOnUse"><stop stop-color="#FFF" offset="0"/><stop stop-color="#EAEAEB" offset=".4835"/><stop stop-color="#A9ABAE" offset=".9451"/><stop stop-color="#999B9E" offset="1"/></radialGradient><linearGradient id="SVGID_38_-6" x1="390.04" x2="390.04" y1="485.68" y2="485.68" gradientTransform="matrix(.26458 0 0 .26458 -107.46 -132.38)" gradientUnits="userSpaceOnUse"><stop stop-color="#FFF" offset="0"/><stop stop-color="#FFF" offset=".6538"/><stop stop-color="#CBCCCE" offset="1"/></linearGradient><linearGradient id="linearGradient40123" x1="390.04" x2="390.04" y1="485.68" y2="485.68" gradientTransform="matrix(.26458 0 0 .26458 -107.46 -132.38)" gradientUnits="userSpaceOnUse" xlink:href="#SVGID_11_"/></defs><g><path d="m69.18 22.578c-0.76175 0.3962-1.9487 1.164-3.2565 2.5789-0.74838 0.8096-4.0965 2.6067-8.6965 3.9112-4.2754 1.2124-9.0244 2.6101-9.7257 2.4366-2.471-0.61129 1.0385-2.1281-1.531-3.6811-2.57-1.5533-8.8447 1.058-7.2346 3.6184 1.3438 2.1368 1.2932 1.7751 0.16311 2.4889-1.4256 0.90041-6.3206 1.5593-9.803 2.0288-6.4814 0.87374-10.757 2.6395-10.757 2.6395l1.4641-10.035-6.2307 7.0296 2.4387 22.994 28.395 1.7778 20.62-11.2 5.2058-19.897z" style="fill:#00832d;paint-order:stroke markers fill;stroke-linecap:round;stroke-linejoin:round;stroke-width:1.5875"/><path d="m100.56 6.3522c-0.0578 0.00168-0.11295 0.00848-0.16513 0.023067-0.83854 0.23293-3.7658 0.57248-3.6728 1.1315 0.09315 0.55902 2.7241 1.6971 3.3297 2.8152 0.60561 1.1181-0.80704 1.4909-3.0432 1.3511-2.236-0.13976-2.6239-1.1804-2.9804-2.148-0.55934-1.5169-2.3927-1.6323-6.946 0.06275-2.0755 0.77264-14.015 4.7445-16.458 4.2061-2.369-0.5222 0.04168-1.6261-1.5184-3.2231-0.89597-0.91714-5.8935-0.27814-6.923 1.0625-1.0861 1.4142 0.70344 2.1042 0.97259 3.2063 0.32986 1.3496-8.5858 3.1771-9.4558 3.1227 0.73703 3.8801 0.54877 8.1143 2.7546 7.4751 2.2039-0.6386 2.0328-2.7385 4.7457-3.0976 1.199-0.1587 3.8504 2.7182 2.8905 5.1473-0.6728 1.7024-3.504 1.6681-5.3209 1.5749-1.817-0.09316-2.2531 1.9444-2.0204 4.1831 0.36062 3.4692 1.7715 8.1256 1.7715 8.1256s-9.0006 1.4855-11.543 2.125c-1.2206 0.30703-5.2622 0.86794-5.5217 2.834-0.13882 1.0532 1.267 0.75928 1.6523 2.6876 0.51195 2.5619-3.8019 3.6329-5.5279 3.6978-2.0334 0.07646-4.8655 0.0086-5.3314-2.2275-0.46585-2.2361 2.922-3.2092 1.8385-4.3776-0.98998-1.0676-12.956 0.61793-13.693 0.8638 0 0-0.67252-2.1142-0.90564-5.3752-0.23314-3.261 2.2253-6.911 3.7125-7.4793 1.7213-0.65786 1.3821 0.58659 3.8045 0.16732 2.4224-0.41928 2.5966-4.849 1.7548-5.6095-1.0212-0.92249-1.7135 0.69177-3.3276 0.3953-1.6141-0.29647-0.72468-5.7978 0.92236-7.906 1.647-2.1082 3.026-5.7916 2.8863-6.1177-0.13964-0.3261-0.82838 0.54795-2.0727 1.2361-1.1929 0.65968-1.3505-0.63027-1.0709-1.9347 0.27968-1.3044 2.2473-2.7803 3.2837-2.5851 0.61836 0.11647 1.2139 0.017 1.7464-0.37228 0.60564-0.44257 2.6332-4.0994 2.6332-4.0994l-2.2358 0.88472s-0.40312-1.4205-1.2591-1.3511c-0.86189 0.069895-3.1448 0.90788-3.7271 2.2589-0.56295 1.3061-0.72172 1.2587-2.5851 2.6563-1.5846 1.1885-3.3445 1.0467-4.1538 0.92028a66.146 66.146 0 0 0-19.798 47.131 66.146 66.146 0 0 0 66.147 66.147 66.146 66.146 0 0 0 66.145-66.147 66.146 66.146 0 0 0-13.147-39.576c-0.22016 0.72107-0.65352 1.398-1.3448 1.9368-1.2109-1.873-5.4672-5.8834-5.1033-6.6281 0.35009-0.7171-2.6926-3.7821-4.5407-4.6913-0.43641-0.21471-0.39302 0.33448-0.97677 0.23216-0.5835-0.10228-3.0547-2.3062-3.635-2.7943-0.69659-0.58585-2.1186-1.9444-2.9847-1.92z" style="fill:#0066da;paint-order:stroke markers fill;stroke-linecap:round;stroke-linejoin:round;stroke-width:1.5875"/><path d="m106.85 56.394s1.2681 5.4919 2.7452 7.6664c1.1112 1.6359 3.2417 3.4809 4.2723 1.3007 0.66895-1.4152 1.5738-3.5682 3.3824-3.4563 2.646 0.16376 2.2985 3.5319 2.0694 5.5766-0.24122 2.1542-0.78238 3.1035-3.6487 2.8577-1.8267-0.15668-3.7393 2.7104-2.6361 6.6349 1.0995 3.9112 3.4586 5.8807 3.4586 5.8807s-4.948 3.7428-8.311 6.0598c-3.8746 2.6696-8.0758 2.3702-7.6134 1.4484 0.99593-1.985 1.9258-3.9384 0.50453-5.179-1.5396-1.344-7.4038 0.85784-9.55 2.5156-1.982 1.5309-4.0064 3.3542-2.0498 4.4256 1.9566 1.0715 3.6185 1.0739 2.102 2.4601-2.8774 2.6301-14.275 5.001-20.819 4.7168l-9.6536-4.1488 0.60561-20.917 3.2851-2.7486 20.194-19.286z" style="fill:#2684fc;paint-order:stroke markers fill;stroke-linecap:round;stroke-linejoin:round;stroke-width:1.5875"/><path d="m64.995 71.488s-7.4467 1.0333-13.31 2.2192c-5.062 1.0238-8.8611 2.3718-6.5553 4.8094 2.3059 2.4376 2.8988 3.1294 0.39543 4.1835-2.5035 1.0541-8.4329 2.5694-9.8823 0.42823-1.5209-2.2468 1.8118-2.3718 1.4494-4.0517-0.40473-1.8754-1.7541-3.1982-6.2917-3.3929-3.1078-0.13336-9.9811 1.2188-9.9811 1.2188s-1.2272 4.0109-0.75764 7.0164c0.49406 3.1623 3.1952 5.5012 5.0399 4.7106 1.8447-0.79059 2.9427-2.2449 4.3812-0.88941 1.713 1.6141 3.6632 6.0434 1.8777 6.8188-1.7107 0.74288-4.0764-0.98341-5.9953-1.2518-2.0718-0.28975-3.1842 2.8257-1.2845 5.7317 0.85646 1.7788 1.9435 3.0965 1.9435 3.0965s6.1454 0.37668 9.0917 0.59294c2.7053 0.19856 7.8239 0.0481 8.4988 0.92235 1.4494 1.8776-1.2518 3.36-0.19751 4.4141 1.0541 1.0541 4.3482 1.9106 6.8517 1.5812 2.5035-0.32941 6.0833-1.0212 6.193-1.9106 0.29667-2.4047-3.1953-2.2729-2.9977-3.7882 0.19751-1.5153 3.8276-1.9691 6.6212-3.0635 3.1952-1.2518 10.673-1.5812 10.673-1.5812s-2.1411-2.7341-1.9435-4.8094c0.24486-2.5712 1.31-5.0538 5.3035-6.0611 3.6564-0.92235 5.8723 1.479 6.7529-1.5482 0.55974-1.9244-0.03239-5.1717-1.8118-6.6541-1.0422-0.86849-3.1953-1.1859-4.7106 0.52706-1.5153 1.7129-3.7882 3.5576-5.567 3.6565-0.94183 0.05234-3.1311-2.0944-3.5906-4.9741-0.53142-3.3309-0.19589-7.9509-0.19589-7.9509z" style="fill:#ffba00;paint-order:stroke markers fill;stroke-linecap:round;stroke-linejoin:round;stroke-width:1.5875"/><path d="m132.15 63.664c-2.2383 2.3587-3.5478 5.9498-4.0513 7.404-0.63168 1.8241 0.44799 1.7528 0.18618 3.6811-0.25621 1.8867-1.8417 3.8197-2.9365 3.7731-1.8155-0.07727 0.46643-4.0538 0.11701-4.706-0.26754-0.49959-0.63912 0.51757-3.4239 3.7271-2.7467 3.1657-5.5389 5.3076-5.5426 5.3104 0 0 1.4904 6.5698-1.165 9.2718-1.5626 1.59-2.4701 2.3283-5.0322 2.468-2.5622 0.13976-3.432 1.5767-4.0994 3.7271-0.83859 2.702 0.66457 3.3337 2.1898 2.7964 1.6472-0.58028 3.7732-2.7496 4.2856-2.4701 0.31165 0.16991-2.5617 4.053-3.4469 4.9381-0.88512 0.88511-2.3998 2.9811-3.0285 4.1224 1.8677-0.57184 7.3146-5.1946 7.268-3.8902-0.0243 0.72871-2.0893 1.9024-1.7485 2.4701 0.15502 0.25863 0.5354 0.37034 1.0165 0.39531a66.146 66.146 0 0 0 19.412-43.019z" style="fill:#ffba00;paint-order:stroke markers fill;stroke-linecap:round;stroke-linejoin:round;stroke-width:1.5875"/><path d="m19.131 21.02c-1.1484-0.0043-2.7586 1.0577-2.9595 2.2296-0.27968 1.6305-1.5121 3.9365-4.5867 3.2377-0.79138-0.17986-1.5211-0.36839-2.1773-0.55007a66.146 66.146 0 0 0-1.0102 1.6753 66.146 66.146 0 0 0-0.16109 0.28028 66.146 66.146 0 0 0-1.9179 3.7836 66.146 66.146 0 0 0-0.3764 0.81361 66.146 66.146 0 0 0-1.3449 3.2 66.146 66.146 0 0 0-0.65049 1.7443 66.146 66.146 0 0 0-0.80733 2.3927 66.146 66.146 0 0 0-0.72995 2.4701 66.146 66.146 0 0 0-0.43084 1.6607 66.146 66.146 0 0 0-0.73205 3.3255 66.146 66.146 0 0 0-0.050147 0.2698c0.56999-0.22811 1.1977-0.35111 1.7925-0.19662 1.4769 0.38373 2.0189 1.3016 3.587 0.62955 1.7935-0.76867 1.981-3.3914 1.6544-5.0552-0.31812-1.6196 1.1168-2.8193 2.6541-2.6562 1.1357 0.12045 2.563 1.1185 0.79272 4.0534-1.1413 1.8922-0.95438 3.4469 1.8175 3.61 2.1858 0.12858 6.8979-0.9642 6.8979-0.9642s-0.67252-2.1143-0.90564-5.3752c-0.23314-3.261 2.2253-6.911 3.7125-7.4793 1.7213-0.65785 1.3821 0.58658 3.8045 0.16732 2.4224-0.41928 2.5966-4.8491 1.7548-5.6095-1.0212-0.92249-1.7135 0.69177-3.3276 0.39531-1.1576-0.21261-1.0247-3.0993-0.25094-5.4945h-0.0036s-7.3253 3.1403-7.0924 1.5331c0.23314-1.8168 2.7285-2.2523 2.0727-3.5389-0.1963-0.38527-0.57546-0.55047-1.0249-0.55217z" style="fill:#ffba00;paint-order:stroke markers fill;stroke-linecap:round;stroke-linejoin:round;stroke-width:1.5875"/><path d="m58.519 41.371c6.2002-0.845 16.302-1.7857 15.603-4.8818-0.36427-1.6124-3.8019-0.51107-4.7534-3.8087-1.2218-4.234 10.962-6.1086 11.659-3.1678 0.47358 2.0002-2.0108 4.9317 1.5801 4.6689 6.0028-0.43923 11.595-3.3542 11.595-3.3542 1.5001 1.5829 5.4888 7.0483 3.7541 7.9159-2.436 1.2183-8.0443 0.49545-5.3131 5.7723 4.2694 8.249 6.1556 1.3905 8.6649-0.46586 1.3553-1.0026 5.3436 5.9423 5.5437 12.345 0 0-15.255 8.1378-14.954 5.3573 0.18617-1.7237 5.0252-8.5669-4.9381-5.1244-11.223 3.8776-5.3701 5.8708-3.5871 7.9661 4.2484 4.9927-15.956 7.6068-18.377 6.8947-0.23314-4.214-0.22949-9.4103-4.1354-10.662-3.1599-1.0127-4.3528 1.1091-5.9788 2.1231-1.626 1.014-5.8029-1.064-5.2829-5.8418 1.0334-9.4951 8.5413-3.3219 10.009-4.9444 1.6874-1.8651 0.8145-5.9921-1.0881-10.793z" style="fill:#ea4335;paint-order:stroke markers fill;stroke-linecap:round;stroke-linejoin:round;stroke-width:1.5875"/><path d="m100.56 6.352c-0.0578 0.00168-0.11294 0.00848-0.16513 0.023067-0.83853 0.23292-3.7658 0.57249-3.6727 1.1315 0.09304 0.55902 2.7241 1.6971 3.3297 2.8152 0.6056 1.1181-0.80705 1.4909-3.0432 1.3511-2.2361-0.13976-2.6239-1.1804-2.9804-2.148-0.55935-1.5169-2.3927-1.6322-6.946 0.06275-0.78474 0.29214-2.9819 1.0421-5.5405 1.8322 0.44954 1.0456 1.1092 2.263 2.0246 3.2084 2.0879 2.1565 4.0999 2.1435 5.5907 0.46641 1.2134-1.365 2.499-0.01822 3.4008 1.1629 1.3992 1.8328 1.2748 4.6025-0.37236 4.1015-2.8512-0.86721-5.4009-0.53216-4.706 2.1417 0.87829 3.3793 5.1336 5.4714 6.7243 8.3264 0 0 2.4525 0.10584 6.2725-2.0372 3.212-1.8019 5.8241-4.1922 7.0819-2.422 0.89083 1.2538-0.18537 4.5194 4.3797 3.8672 3.1878-0.4554 3.5403-2.47 1.211-4.5198-1.7208-1.5143 0.81219-1.5792 3.587-2.6562 1.1892-0.46161 1.3382-0.68614 1.4202-1.1524l-0.0161-0.0523c-0.10602 0.10305-0.21694 0.20411-0.33876 0.2991-1.2109-1.873-5.4672-5.8834-5.1033-6.6281 0.3501-0.7171-2.6926-3.7821-4.5408-4.6913-0.43638-0.21471-0.39299 0.33448-0.97671 0.23216-0.5835-0.10228-3.0547-2.3062-3.6351-2.7943-0.69661-0.58585-2.1186-1.9444-2.9846-1.92z" style="fill:#2684fc;paint-order:stroke markers fill;stroke-linecap:round;stroke-linejoin:round;stroke-width:1.5875"/><path d="m13.199 93.073c-0.13478-0.0012-0.26388 0.01822-0.38693 0.05856-1.4358 0.46928 1.3893 3.1629 1.4055 4.2709 0.01206 0.81867-2.4865-1.3754-4.6683-3.4427a66.146 66.146 0 0 0 31.969 27.207c2.9402-0.11259 6.9625 0.18635 7.2346 0.14013 0 0-1.447-1.067-5.0845-3.3904-3.6894-2.3566-4.9294-3.5676-5.3062-2.3885-0.60755 1.9014-5.2705-0.65074-7.2158-2.9407-2.0544-2.4183 0.02029-2.1134 2.0121-0.97673 0.95826 0.54686-1.4962-3.087-3.1645-4.524-3.5531-3.0606-3.9697-4.9507-3.9697-4.9507s-6.2247-0.89012-7.4459-2.4534c-0.75442-0.96575 0.31286-1.5768-1.3135-3.5849-0.97157-1.1995-2.763-3.0139-4.066-3.0244z" style="fill:#ea4335;paint-order:stroke markers fill;stroke-linecap:round;stroke-linejoin:round;stroke-width:1.5875"/><path d="m51.419 356.74" style="fill:url(#SVGID_2_);stroke-width:.068659"/><path d="m51.419 356.74" style="fill:url(#linearGradient29409);stroke-width:.068659"/><path d="m51.419 356.74" style="fill:url(#linearGradient29409);stroke-width:.068659"/><path d="m51.419 356.74" style="fill:#232323;stroke-width:.068659"/><path d="m51.419 356.74" style="fill:#232323;stroke-width:.068659"/><path d="m51.419 356.74" style="fill:#ffffff;stroke-width:.068659"/><path d="m51.419 356.74" style="fill:#ffffff;stroke-width:.068659"/><path d="m51.419 356.74" style="fill:url(#SVGID_38_);stroke-width:.068659"/><path d="m51.419 356.74" style="fill:#232323;stroke-width:.068659"/><path d="m-327.4 333.16" style="fill:url(#SVGID_2_-1);opacity:.60048;stroke-width:.068659"/><path d="m-327.4 333.16" style="fill:url(#linearGradient40123);opacity:.60048;stroke-width:.068659"/><path d="m-327.4 333.16" style="fill:url(#linearGradient40123);opacity:.60048;stroke-width:.068659"/><path d="m-327.4 333.16" style="fill:#232323;opacity:.60048;stroke-width:.068659"/><path d="m-327.4 333.16" style="fill:#232323;opacity:.60048;stroke-width:.068659"/><path d="m-327.4 333.16" style="fill:#ffffff;opacity:.60048;stroke-width:.068659"/><path d="m-327.4 333.16" style="fill:#ffffff;opacity:.60048;stroke-width:.068659"/><path d="m-327.4 333.16" style="fill:url(#SVGID_38_-6);opacity:.60048;stroke-width:.068659"/><path d="m-327.4 333.16" style="fill:#232323;opacity:.60048;stroke-width:.068659"/><path d="m26.463 10.793c-0.24122 0.17492-0.87506 0.28265-1.1772 0.45905 0.04155 0.17492 0.02457 0.13088 0.15301 0.20484-0.18026 0.50061-0.77566 0.87277-1.0791 1.2852-0.48112 0.64844-1.0168 1.2553-1.4876 1.8985-0.15953 0.2129-0.26572 0.54636-0.46152 0.71757-0.30734 0.26986-1.1842 0.23969-1.537 0.51334h-0.10365c0.07259-0.43079 1.1763-1.8051 1.4876-2.1034v-0.05183c-0.52912 0.07403-0.93908 0.35372-1.2828 0.6133 0.05707 0.11793 0.04848 0.09495 0.15611 0.15548-0.18806 0.30885-0.46851 0.53784-0.66822 0.82061-0.25547 0.35682-0.39534 0.78085-0.66637 1.1297 0.01803 0.05201 0.03643 0.10006 0.05183 0.15302 0.32679-0.03 1.6924-0.46222 1.8973-0.61515v6.17e-4h0.15179c-0.20751 0.6238-1.0234 1.4796-1.3852 2.0528-0.20231 0.32184-0.32661 0.74148-0.61454 0.97363 0.04943 0.05593-0.0037 0.0043 0.05183 0.05245 0.11414 0.06745 1.0545-0.1806 1.2322-0.30603 0.10626 0.02 0.09847 0.01503 0.15548 0.05059 0.05456 0.09098-0.62403 1.2852-0.77187 1.4382v0.05183c0.25417-0.02999 0.65128-0.07242 0.82247-0.20731 0.4967-0.38781 0.60928-1.2151 0.97239-1.7455-0.01695-0.08542-0.03356-0.17125-0.05183-0.2542-0.28791-0.05201-0.88276 0.02463-1.1279 0.20299h-0.05121c0.11808-0.61341 1.1258-1.7454 1.4864-2.2576 0.58878-0.83908 1.1425-1.646 1.7443-2.4643 0.31515-0.42928 0.75889-0.8062 1.0779-1.2303 0.35793-0.47576 0.73811-1.1025 1.2309-1.4358v-0.10242zm75.175 1.9528c-0.19195 0.14892-0.47619 0.15298-0.72127 0.25544-0.68734 0.29835-1.4039 0.89224-1.6918 1.5912-0.32296 0.78073 4e-3 1.9339 0.25359 2.5149 0.50839 1.1724 1.3363 2.1619 2.0521 3.1307 0.59267 0.79756 1.2616 1.6236 2.3588 1.8985 1.2398 0.30885 1.8439-1.1469 2.3094-1.6968 0.47983-0.56412 1.5334-0.69855 1.8991-1.4351 0.13486-0.26837 0.0439-0.79783-0.0506-1.0261-0.23346-0.55243-1.383-2.1032-1.8485-2.4106 0.031-0.30985 0.17512-0.32076 0.30479-0.51396 0.32165 0.15692 0.43862 0.61109 0.66945 0.87306 0.29441 0.33484 0.70774 0.51333 1.0255 0.81938 0.49022 0.0038 0.78364-0.12175 1.0248-0.3591h0.053c-0.12046-0.34384-0.57304-0.5813-0.81814-0.82123-0.53677-0.53943-0.94562-1.2159-1.4876-1.7449v-0.05059c-0.26586 0.09452-1.166 0.89177-1.3333 1.1291-0.32424-0.1235-0.50676-0.47305-0.77002-0.66636-0.87669-0.65882-1.703-1.5135-3.2294-1.4876zm-0.36279 0.35663c0.87149 0.01016 1.289 0.59414 1.7973 0.97671 1.254 0.94024 2.3053 2.1087 3.23 3.3861h6.2e-4c0.415 0.56932 0.97882 0.89222 0.97363 1.8973-0.15823 0.15042-0.20343 0.29039-0.46152 0.35786-0.0505 0.03998-0.0153 0.02002-0.1011 0.05305-0.72625-1.2087-1.7731-2.2188-2.6161-3.3367-0.27492-0.36582-0.70121-0.66294-0.97486-1.0261-0.46946-0.62244-1.0284-1.1205-1.5406-1.6924-0.14647-0.16991-0.21793-0.33331-0.40599-0.46275 0.043-0.11148 0.0401-0.07399 0.0987-0.15302zm-1.284 0.71881h0.20238c0.25805 0.38782 0.69849 0.65707 0.97733 1.0267 0.76644 1.0168 1.7032 1.9053 2.4618 2.9246 0.46558 0.629 0.9826 1.219 1.4339 1.8467 0.23083 0.32284 0.40873 0.73307 0.72127 0.97424-0.0519 0.23338-0.15059 0.34206-0.25174 0.51458-0.90651 0.2139-1.3578-0.3801-1.8467-0.87306-1.2165-1.2126-2.036-2.714-2.9801-4.2067-0.32035-0.5136-1.1474-1.4704-0.71819-2.207zm-31.628 3.5311c-0.15536 9.52e-4 -0.30687 0.0057-0.44239 0.01-0.17246 0.16193-0.32681 0.19412-0.40723 0.46398h-0.05059c-0.02698 0.09844 0.02588 0.06514 0.05059 0.10119 0.03248 0.02 0.21138-0.01037 0.30604 0.05183 0.58229 0.06099 0.56817 0.73423 0.87553 1.0779-0.03511 0.08946-0.0143 0.05227-0.0543 0.10427-0.20101 0.15942-1.6871 0.58718-2.0009 0.6676-0.23993 0.05947-0.53729-0.08782-0.71756-0.10489-0.43574-0.03492-0.82052 0.20718-1.0773 0.3591 0.13878 0.20341 0.56256 0.15296 0.71819 0.35786 0.54598 0.72495 0.78993 1.6589 1.2827 2.4643 0.25806 0.08542 0.51374 0.16998 0.77311 0.25544 0.20621 0.0025 0.42407-0.0023 0.56024-0.05183-0.01194-0.84814-0.47243-1.184-0.7694-1.7443-0.14652-0.28536-0.22685-0.6785-0.46029-0.87306 0.08943-0.31385 0.94304-0.3991 1.2815-0.51334 0.83388-0.27337 1.7775-0.54761 2.6192-0.82123 0.39555-0.12843 0.86129-0.09953 1.1803-0.30542 0.18935 0.02 0.28519 0.04007 0.3591 0.15302 0.18546 0.27486 0.33726 2.1614 0.20238 2.7191-0.51615 2.1566-1.1617 3.8425-2.513 5.1328v0.05059c0.49931-0.08047 0.73629-0.5652 1.076-0.81938 1.363-1.0297 2.2853-2.5575 2.7716-4.4665 0.28663-1.1218-0.18173-2.2216 0.25791-3.18h-0.04998c-0.09592-0.24388-1.4036-0.71683-1.8004-0.71942-0.2127 0.22938-0.51707 0.53921-0.82185 0.6676-0.46296 0.19741-1.0869 0.14158-1.4864 0.40846-0.37223-0.02999-0.65616-0.73946-0.40846-1.0261-0.01445-0.11641-0.01182-0.14537-0.05183-0.20485-0.23247-0.1859-0.73645-0.21757-1.2025-0.21472zm8.8497 1.7548c-0.07403 0.05441-0.20202 0.08301-0.31097 0.09996 0.06491 0.13344 0.10625 0.16113 0.25791 0.20361 0.14646 1.5057-0.90638 2.8853-1.5937 3.797-0.26976 0.36183-0.72143 0.59148-0.97301 0.97795h-0.05183v0.04997c0.68085-0.11148 2.1662-1.525 2.5124-2.0515v-0.0012c0.24253 0.12046 0.24233 0.43119 0.36033 0.66698 0.23994 0.48125 0.56708 1.0633 0.71881 1.5925v0.40969c0.11933 0.32684 0.51311 0.36814 0.77249 0.56394 0.20229-0.02492 0.27755-0.07844 0.40722-0.1524-0.08553-0.97653-0.68048-1.7873-1.0255-2.5667-0.10375-0.24389-0.26845-0.58649-0.30603-0.82123-0.02708-0.14143 0.08174-0.21881 0-0.35724-0.06605-0.15942-0.09334-0.11075-0.20238-0.2067-0.07656-0.05201-0.03999-0.02021 0-0.10119 0.08819-0.18691 0.27623-0.37207 0.35663-0.56517 0.17248-0.4058 0.16451-0.74732 0.51334-0.97425-0.05188-0.53174-0.82882-0.59247-1.4358-0.56394zm-60.038 10.055v6.17e-4c-0.11414 0.4148-0.3558 0.7686-0.51273 1.1279-0.34753 0.79496-0.65721 1.5889-0.97364 2.3631-0.26848 0.64325-0.43474 1.6794-0.82123 2.2033v0.10242c0.53951-0.09592 0.90541-0.63903 1.2309-0.97363 0.80016-0.82221 2.4902-2.8793 2.4643-4.4122-0.08047-0.07909-0.1542-0.20983-0.20608-0.30727-0.31904-0.07643-0.73153-0.11186-1.1816-0.10427zm-0.0012 1.0822c0.19711 5e-3 0.34743 0.01958 0.46152 0.10057 0.12324 0.06745 0.0364-0.02467 0.10242 0.10427 0.10507 0.25537-0.23214 0.66246-0.35663 0.86997-0.23475 0.38633-0.36472 0.7679-0.61762 1.1297-0.23083 0.33084-0.59626 0.58645-0.82062 0.92488h-0.05306c0.06614-0.39181 0.27722-0.70826 0.41339-1.0273 0.30475-0.72754 0.51396-1.4498 0.8706-2.1021zm100.47 0.81568c-0.27367 0.23188-0.56378 0.41756-0.71942 0.76879-1.0076 2.2851 1.062 4.8594 2.0009 6.1083 0.33197 0.43978 0.72261 0.92299 1.2297 1.1772-0.11796 1.7845-1.6459 2.3518-3.2812 1.6437-1.1659-0.50055-2.097-1.6044-2.8259-2.5667-0.24381-0.32283-0.62411-0.59289-0.87181-0.92488-0.22955-0.30985-0.39398-0.65715-0.66761-0.92427v-0.05059h-0.1011c0.13883 0.55243 0.45884 1.0569 0.66636 1.5407 0.86759 1.9946 1.9716 3.3902 3.6459 4.5664 0.78849 0.55504 2.1022 1.4315 3.2343 0.61577 1.979-1.4239 1.0154-6.7293 0.20484-8.7213-0.2127-0.52525-0.381-0.93643-0.61576-1.3852-0.38912-0.74437-0.79556-1.8337-1.8992-1.8479zm-106.47 0.82c-0.93634 0.0025-2.065 1.6688-2.3606 2.36-0.14913 0.34482-0.14908 0.74334-0.35787 1.0261v0.05183c0.7003-0.08542 1.4037-0.17246 2.104-0.25791 0.26586-0.05694 0.63127 0.06736 0.82062-0.05058h0.71819c0.11928-0.15293 0.23912-0.3086 0.35971-0.46152 0.42794-0.45278 0.99553-0.91064 1.3327-1.4345h0.15487v0.71448c-0.39296 0.35382-1.0026 0.90142-1.1803 1.437v0.40969c-0.26327 1.1413 0.2893 1.7235 1.284 1.6431 0.64842-0.60435 1.7171-1.0996 1.59-2.307-0.05423-0.04478-5e-3 0.0034-0.05183-0.04998h-6.21e-4c-0.10405 0.01974-0.09822 0.01037-0.15116 0.05058-0.37352 0.1919-1.0024 1.8494-1.7455 1.3864-0.37867 0.0025-0.41401-0.07126-0.61762-0.20731 0.02591-0.48776 0.85462-1.3786 1.184-1.59 0.04-0.78332 0.24252-1.6235 0.15302-2.3588-0.05313-0.02-0.10374-0.03504-0.15302-0.05058-0.18156-0.05947-0.32401 0.21792-0.46275 0.35786-0.37606 0.37732-0.84053 0.77377-1.1297 1.2303-0.43703-5e-3 -1.8336-0.01474-2.1046 0.15487h-0.15425c0.1284-0.33184 1.115-1.4213 0.8206-1.8985-0.01695-0.0529-0.03235-0.10393-0.05182-0.15548zm-0.46029 0.9255v0.25544c-0.23994 0.30986-0.47893 0.61562-0.71881 0.92427-0.14654-0.0025-0.27875-2e-3 -0.35786 0.05245h-0.30974c0.14139-0.56541 0.69647-1.2127 1.3864-1.2322zm107.4 0.71819h0.25544c0.50318 0.52261 0.96754 1.022 1.284 1.743 0.16724 0.38781 0.19718 1.044 0.40598 1.3864-0.0285 0.09098-6e-3 0.05188-0.0456 0.10489-0.13486 0.12998-0.69919-0.5431-0.8237-0.6676-0.57192-0.57453-1.7232-1.5837-1.0761-2.5667zm-30.635 6.0553c-0.39554 0.28786-1.4666 0.4836-2.0009 0.61453-0.40589 0.09844-0.82884 0.01513-1.1297 0.20484-0.05061 0.01519-0.10116 0.03535-0.15425 0.05245 0.01808 0.10237 0.03244 0.20632 0.05307 0.30727 0.58487 0.19091 1.1246-0.04025 1.3839 0.46152 0.16858 0.32684 0.14523 1.5003 0.05058 1.9503-0.3255 1.5083-0.18915 3.2306-0.51335 4.7207-0.1116 0.51486 0.02858 1.5186-0.20361 1.8973v0.10427c-0.31256-0.14891-0.51519-0.55276-0.71881-0.82123-0.45906-0.60565-1.1346-1.0894-1.5937-1.6924-0.27623-0.36432-0.56639-0.80026-0.92303-1.0804 0.04783-0.9869 0.33551-2.0227 0.56764-2.9227 0.16986-0.67696 0.17492-1.3039 0.51211-1.7979 0.19197-0.28137 0.65522-0.45999 0.97425-0.61577-0.0038-0.12937-5e-3 -0.18922-0.05183-0.25667-0.0181-0.05201-0.03004-0.1028-0.04813-0.15487-0.70419 0.10502-1.3005 0.44266-1.9516 0.61639-0.58879 0.15941-1.1819 0.1195-1.6462 0.35786 0.01544 0.11793 0.01257 0.14534 0.05307 0.20485 0.01809 0.05049 0.03109 0.10398 0.05059 0.15302 1.8039-0.10098 1.5304 0.87903 1.1828 2.2588-0.10895 0.4228-0.03742 1.0052-0.25791 1.3333v0.10242h-0.0506c-0.36962-0.56153-0.92484-1.1049-1.3839-1.5912-0.18935-0.17142-0.37716-0.3422-0.56394-0.51211-0.13486-0.17792-0.20731-0.40516-0.36033-0.56579 0.03099-0.56673 0.49241-0.71168 0.92427-0.87121-0.01949-0.23738-0.06745-0.26762-0.15302-0.41154-1.3371 0.19589-2.4988 0.94695-4.0019 1.0261v0.05245h-0.05183c5e-3 0.12937 5e-3 0.18947 0.05183 0.25544v0.10242c0.29441 0.05049 0.73164-0.07015 1.0779 0.05183 0.55375 0.1944 1.05 0.84044 1.3833 1.284 0.5032 0.66526 1.2917 1.2307 1.7949 1.8973 0.26458 0.35533 0.56306 0.8223 0.92489 1.0791-0.04935 0.90261-0.29678 1.8522-0.51335 2.6692-0.1116 0.4188-0.04541 0.95282-0.25544 1.2809-0.03252 0.08946-0.01271 0.05087-0.05307 0.10427-0.48892-0.93115-1.4322-1.6408-2.0521-2.4643-1.1905-1.5822-2.5131-3.007-3.7464-4.5658 0-0.2164 0.01281-0.34819 0.10366-0.46213 0.09465-0.29687 0.46589-0.57418 0.82123-0.617 0.01949-0.15542 0.04292-0.17519-0.05059-0.30912-0.02101-0.05011-0.03345-0.10004-0.05306-0.15302-1.0414 0.15942-1.9728 0.6447-2.9739 0.92612-0.52005 0.14539-1.2034 0.07405-1.5937 0.35786-0.05188 0.01531-0.10382 0.03474-0.15178 0.05183 0.02746 0.19741 0.07913 0.22879 0.15178 0.35971 0.4072-5e-3 0.83799-0.11945 1.2309 0 1.0284 0.31235 1.7649 1.4743 2.3576 2.2588 0.26066 0.34482 0.66551 0.62665 0.92488 0.97425 1.101 1.4641 2.3447 2.7826 3.4367 4.2598 0.42537 0.57321 0.99953 1.07 1.3821 1.6912 0.23216-5e-3 0.27999-0.02991 0.40969-0.10242 0.2762-1.2048 0.43072-2.4198 0.7731-3.644 0.15434-0.56029 0.34888-1.2216 0.40722-1.8467 0.42408 0.15196 0.76789 0.78734 1.0285 1.1297 0.80147 1.0647 1.9332 1.9474 2.6673 3.077 0.21268-0.01016 0.23652-0.03452 0.35971-0.10057 0.23213-1.7404 0.45135-3.486 0.67438-5.2303h-6.17e-4v-0.51211c0.23212-1.0388 0.17768-2.2889 0.40722-3.3355 0.31256-1.411-0.13096-2.7857 1.284-3.1307 0.02708-0.13746 0.07403-0.19156 0-0.3085-0.03252-0.08694-0.01016-0.05054-0.05183-0.10242-0.05581-0.03998-0.04946-0.02996-0.15055-0.05058zm-81.436 10.208c-0.17247 0.29585-0.31831 0.63955-0.40907 1.0273-0.30346 1.2748 0.40101 2.3573 1.1791 2.6167 0.51484 0.08452 1.0271 0.17148 1.5407 0.25544 0.40722 0.15842 0.58724 0.4915 0.86996 0.77187-0.01194 0.66398-0.64799 0.7364-1.1797 0.56394-0.82999-0.26988-1.7135-0.45759-2.5643-0.76755-0.22303-0.083-0.4315-0.22041-0.71943-0.2579-0.034864 0.32435-0.069871 0.64943-0.10366 0.97363 0.71846 0.22189 1.438 0.4451 2.1552 0.66821-0.029968 1.813-0.74446 3.9865 0.15425 5.3858 0.10901 0.02505 0.18536 0.04988 0.25668 0.10366 1.0116-0.06998 1.2229-0.88197 1.7443-1.437 0.44354 1.0634 0.11185 2.9219-0.86998 3.1813-0.4228 0.29035-1.0415-0.08534-1.2827-0.30727-0.84036-0.77682-1.0183-1.9596-1.3321-3.2837-0.1077-0.44627 0.042995-1.3512-0.15301-1.6949 0.00716-0.52392 0.11942-1.4707-0.15549-1.743v-0.05059l-0.10242 0.0012c-0.016955 3.1994-0.18381 8.1298 2.3101 8.8262 0.9078 0.25038 1.4096-0.35158 1.6937-0.77187 1.0193-1.5173 0.7329-4.4688-0.2579-5.7449-0.43963 0.04505-1.0701 1.0895-1.2815 1.4345-0.10626-0.02-0.09723-0.01513-0.15425-0.05183-0.11808-0.05289-0.11008-0.08551-0.20608-0.15302-0.07785-1.21 0.1646-2.3368 0.20608-3.4898 1.3539 0.13242 2.517 0.90231 3.8994 0.97363-0.0012-0.23989 1.31e-4 -0.56263 0.09995-0.71572-0.01194-0.11945-0.0084-0.14532-0.05183-0.20731-0.18805-0.14891-1.2308-0.39697-1.5382-0.40846v-0.05183h-0.051828c0.18936-1.5225-0.24133-2.7001-1.284-3.1307-0.58229-0.10389-1.1632-0.20729-1.7455-0.30974-0.297-0.10743-0.44202-0.3453-0.66637-0.51273-0.07522-0.49274-0.1726-1.0454 0.20608-1.3346-0.026984-0.18392-0.041455-0.21753-0.15425-0.3085v-0.05059zm120.64 5.5981c-0.13365 0.13486-0.23201 0.20492-0.20608 0.36033 0.10782 0.46578 0.70967 0.56049 0.87306 1.0273 0.0195 0.22289 0.0333 0.44452 0.0519 0.66636 0.17246 0.72754 0.144 1.668 0.30604 2.4125v0.61577c0.0818 0.37483 0.20745 1.3435 0.1011 1.6431-0.18024 0.53175-0.7571 1.0116-1.1254 1.3852-0.97784 0.97914-2.1271 2.2245-3.8519 2.4112-0.0325 0.08794-0.0137 0.05027-0.053 0.10366 0.0285 0.64064 0.61744 0.51387 1.0285 0.77064 0.10373-0.01999 0.20489-0.03542 0.30604-0.05491 0.1582-0.09592 0.24761-0.31361 0.35786-0.46152 0.25936-0.33836 0.7298-0.51719 0.97363-0.86997h0.0519c3e-3 1.5627 0.0365 3.3208 0.0519 4.8213h0.15179c0.35272-1.5199 0.32726-3.3845 0.30911-5.2377 0.67567-0.63026 1.1062-1.5432 1.7961-2.1527v-0.10119h0.053c8e-3 1.6224 0.0481 3.2799 0.0481 4.9243 0 0.52783-0.13228 1.7869 0 2.0022v0.30727h0.10362c0.13746-0.55118 0.17244-1.3267 0.30604-1.9466v-0.87368c0.15302-0.6925 0.15172-2.0272 5e-3 -2.721h-1e-3c-0.18547-0.86368 0.0714-1.917-0.10362-2.7197v-0.82062c-0.12577-0.58746-0.0767-1.3695-0.20238-1.9479-0.24513-1.1438-0.0285-2.4976-0.46027-3.4392-0.25548-0.06099-0.51007-0.10933-0.8706-0.10427zm-88.305 1.3987c-0.67253 0.03103-1.4753 0.23396-1.8566 0.3449-2.4705 0.72885-4.148 1.9191-4.9274 4.3091-0.30605 0.94415-0.21089 2.2514 0.05245 3.1307 0.60563 2.0244 2.2994 3.9169 4.8243 3.9519v0.05059c0.08047 0.11401 0.07783 0.34234 0.15302 0.46028-0.03104 0.08694-0.01195 0.05027-0.05183 0.10366-0.21269 0.14387-0.52425 0.07866-0.82122 0.15178-0.60952 0.15292-2.5757 0.63023-3.027 0.20484-0.2879-0.09351-0.47967-0.47056-0.51335-0.81938-0.12839 5e-3 -0.18932 0.0051-0.25544 0.05059h-0.10612c0.18936 0.99466 0.37716 1.9842 0.56394 2.9776h0.05306v0.05183c1.7962-0.30985 3.5922-0.62006 5.387-0.92489-0.25679-0.94408-0.51202-1.8818-0.76879-2.8259-0.14523-0.21788-0.60664-0.19149-0.8712-0.30295l-6.09e-4 -6.17e-4c-0.45003-0.18691-1.0065-0.59818-1.2828-0.97424-0.8261-1.1348-1.7335-3.8229-1.1279-5.8486 0.49151-1.6419 1.5588-2.7584 3.2837-3.1825 0.87279-0.2114 1.8114 0.08036 2.3613 0.36033 1.5666 0.80665 2.2374 1.9529 2.7185 3.8476 0.6225 2.4472-0.17111 4.6932-1.7961 5.4389 0.10113 0.99082 0.20482 1.9831 0.30727 2.9764 0.57579-0.01519 1.1049-0.13596 1.5912-0.25791 0.81573-0.2009 1.648-0.22792 2.4119-0.40784 0.55894-0.13486 1.3643-0.02053 1.7949-0.30788 0.10244-0.22039-0.3203-1.7505-0.40846-2.1046-0.07391-0.29684-0.01182-0.59757-0.15425-0.82061v-0.10242c-0.11796 0.01519-0.2398 0.02935-0.3591 0.04998 0.02352 1.5497-1.0819 1.3389-2.31 1.6437-0.61343 0.15442-1.3604 0.34974-2.0503 0.35724 0-0.2204-3.5e-5 -0.44453-0.0012-0.66636 0.05839-0.10743 0.95874-0.50026 1.126-0.617 0.59786-0.41229 1.2072-1.0713 1.5937-1.6912 0.26197-0.42429 0.47456-0.99076 0.61331-1.4901 0.17896-0.63415 0.19963-1.5177 0.05307-2.1558-0.10244-0.4383-0.06215-0.78155-0.20485-1.1797-0.55375-1.5394-1.7145-2.6638-3.1813-3.2837-0.66529-0.27986-1.4174-0.29073-2.2045-0.46213-0.17475-0.03761-0.3842-0.04614-0.60836-0.03578zm86.509 0.39673c-0.0506 0.03999-0.0133 0.02-0.10058 0.04997 0.035 0.31134 0.14377 0.32076 0.15424 0.66698-0.82999 0.75609-1.5368 2.5688-0.92858 4.1055 0.11163 0.28287 0.3292 0.75244 0.56393 0.92365 0.11164 0.08199 0.17107 0.05184 0.25668 0.15425 1.6989 0.14647 2.3887-2.7788 1.6961-4.4634-0.12312-0.29186-0.66998-1.148-1.181-0.82123h-0.10425c0.0334-0.08946 0.0137-0.04975 0.0519-0.10366-1e-3 -0.24388-0.0266-0.3247-0.0993-0.46213-0.10372-0.01519-0.20276-0.03492-0.30912-0.04997zm0.35045 1.3833c0.39037-0.0014 0.4996 0.07431 0.72005 0.2067 0.39036 0.92211 0.44868 2.534-0.20237 3.2343-0.0999 0.11047-0.29697 0.15049-0.40847 0.25544-1.0751-0.08149-1.1634-2.0427-0.77433-2.9764 0.11414-0.27638 0.34348-0.45411 0.51334-0.66821 0.10639-0.01999 0.0972-0.015 0.15178-0.05183zm-25.547 8.3542c-0.59525 0.09592-1.1399 0.45412-1.6431 0.66821-1.0271 0.4373-2.0323 0.69474-3.0776 1.1279-0.32678 0.13486-0.66798 0.36599-1.0804 0.40846v0.30912c0.03492 0.02 0.07176 0.02993 0.10427 0.05183 0.05441 0.05846 1.3396-0.50846 1.7455-0.15302 0.46166 0.16192 0.40307 0.76525 0.66636 1.131-0.07921 0.79627-0.87155 2.0207-1.1828 2.7197-0.75218 1.7196-1.5173 3.361-2.3551 4.9743-0.32164 0.6186-0.70435 1.7305-1.1297 2.2064v0.05059c-0.28013-0.38382-0.25748-1.363-0.4066-1.896-0.45778-1.6016-0.74966-3.3602-1.2334-4.9255-0.08819-0.29836-0.39563-1.6586-0.20238-1.9491 0.06605-0.70812 1.066-1.0182 1.6418-1.2322-0.01557-0.11945-0.03097-0.24178-0.05059-0.35971-0.9091 0.13594-1.8534 0.62143-2.6692 0.92489-0.77164 0.28936-1.4782 0.40609-2.2576 0.66945-0.38647 0.13243-0.82515 0.35676-1.279 0.40722v0.05307h-0.05306c0.01949 0.14539 0.03249 0.2228 0.10119 0.30727 0.21009 0.13899 1.3363-0.45626 1.7979-0.09996 0.72234 0.24638 0.74272 1.394 0.97486 2.1527 0.6238 2.0477 0.94416 4.3147 1.5394 6.4156 0.14906 0.52395 0.507 2.1868 0.15425 2.6173-0.19197 0.56932-1.1477 0.79721-1.6937 1.0255 0.01808 0.104 0.03084 0.20632 0.04628 0.30727 0.78979-0.11704 1.507-0.48378 2.2138-0.72621 1.3786-0.45926 2.6795-0.84307 4.0062-1.3346-0.02201-0.11945-0.03497-0.24118-0.05306-0.35663-0.56673 0.15044-1.0024 0.32203-1.7973 0.30603-0.10375-0.08845-0.20365-0.17246-0.3048-0.25791-0.08693-0.27236-0.17359-0.54768-0.2579-0.82 0.05581-0.64714 0.88533-1.8425 1.1797-2.4119 0.87279-1.6768 1.6366-3.3719 2.4069-5.1291 0.297-0.67308 0.97798-1.6534 1.0791-2.4082 0.23864 0.14387 0.17243 0.56777 0.25544 0.8712 0.17508 0.61605 0.27353 1.2708 0.46028 1.9491 0.36443 1.2969 0.50733 2.6913 0.87306 4.0543 0.13487 0.50192 0.33839 1.359 0.10366 1.8985-0.23212 0.52395-1.0906 0.87302-1.6431 1.0767 0.02201 0.10895 0.04773 0.23704 0.10366 0.3085 5e-3 0.01016 1.1753-0.37309 1.3802-0.45905 1.4317-0.6108 2.8995-1.2436 4.3585-1.7973-0.0195-0.12034-0.031-0.24245-0.0506-0.35539-0.36312 0.092-1.1932 0.56396-1.6924 0.2542v6.17e-4c-0.57706-0.35433-0.65774-2.1724-0.87303-2.9752-0.42408-1.5757-0.62659-3.2279-1.0779-4.8243-0.28921-1.0219-0.67807-2.0815-0.56394-3.3355 0.18027-0.17892 0.29934-0.41515 0.51335-0.56579 0.28921-0.19989 0.75241-0.2966 0.97548-0.56517 0.0349-0.06593-0.0245-0.16618-0.0531-0.30912zm-93.085 10.939c-0.11928 0.08452-0.23987 0.17181-0.35786 0.25729-0.23084 1.0232 0.18007 2.9153 0.76754 3.3861v0.10057c-0.24513-0.065932-0.50944-0.1967-0.66636-0.35663h-0.051831c0.00836 0.29436 0.066098 0.6767 0.20485 0.87121 0.059579 0.2529 0.4692 0.45963 0.71819 0.51396 0.32164 1.3448 0.76788 2.7248 1.2322 3.9556 0.37482 0.98302 0.56579 1.9191 0.97302 2.8697 0.20099 0.46177 0.6766 0.80028 0.82185 1.284h0.15178c-0.11534-0.43328-0.35134-0.83797-0.51087-1.2309-0.47206-1.1348-0.84685-2.3396-1.2346-3.4861-0.25157-0.75603-0.42516-1.4859-0.66635-2.2082-0.08943-0.27239-0.06407-0.55402-0.20546-0.77187v-0.05059c0.34889 0.06352 0.55788 0.24392 0.82246 0.35786 0.59786 0.26087 1.171 0.35964 1.7961 0.61762 0.45778 0.1894 1.0322 0.44958 1.5925 0.51335 0.06233 0.46578 0.32852 1.6876 0.56456 2.004v0.15178c-0.7807-0.53434-0.7642-1.297-2.157-1.1803-0.06996 0.08199-0.16597 0.15191-0.25544 0.20484-0.1271 0.31637-0.1349 0.83801 0 1.1791 0.3333 0.83779 1.3906 2.582 2.2582 2.8259 0.3333 0.23839 0.82195-0.05616 0.97239-0.31159 0.31384 0.16442 0.37983 0.88455 0.51212 1.2334 0.27494 0.72365 0.67694 1.6715 1.337 2.0009v0.05306h0.10798c-0.08561-0.57972-0.41278-1.1035-0.61639-1.5937-0.45389-1.1088-0.8093-2.2746-1.1828-3.3886-0.2153-0.65104-0.36033-1.2838-0.56394-1.8998-0.10244-0.31884-0.08031-0.68105-0.25791-0.92489v-0.15302c0.34883 0.1259 0.88069 0.11314 1.1816 0.30912h0.26037c-0.05839-0.26686-0.11133-0.71608-0.26037-0.92488-0.15562-0.25288-1.1492-0.25515-1.4345-0.45905-0.4046-0.31634-0.78734-1.228-1.0791-1.6949-0.72624-1.1503-1.6887-2.3759-2.7716-3.1813-0.5745-0.42679-0.97376-0.87046-2.0022-0.87306zm0.5152 1.0292c1.5809 0.18941 3.1667 2.1121 3.9501 3.1794 0.30606 0.4148 0.55787 1.0363 0.97547 1.3346v0.10242c-0.5421-0.03999-1.0025-0.25052-1.437-0.40846-1.1594-0.43079-2.2086-0.79758-3.2319-1.2852-0.12324-0.46427-0.98603-2.1324-0.51397-2.7173 0.03355-0.05201 0.06925-0.10509 0.10304-0.15548 0.10507-0.02493 0.099745-0.01479 0.15425-0.04998zm117.91 4.9243v6.17e-4c-0.18545 0.16843-0.45886 0.21116-0.66636 0.3591-0.64973 0.46578-1.3292 1.2475-1.7961 1.8973-0.37352 0.52135-0.69278 1.0931-1.0261 1.6443-0.14525 0.24387-0.17756 0.52177-0.35911 0.71757v0.10366c0.44873-0.07643 0.71157-0.36658 1.0267-0.56518 0.85465-0.52908 1.6202-1.013 2.41-1.5888 0.38257-0.28137 0.66755-0.71469 1.0761-0.97795 0.0376-0.61341 0.16199-1.0945-0.1-1.5407-0.16083-0.03011-0.34215-0.05188-0.56518-0.04997zm-0.20238 1.0261h0.20238c0.0465 0.0596 0.0438 0.05719 0.10362 0.10427-0.0481 0.3863-0.46658 0.52508-0.7182 0.71572-0.30995 0.2294-0.60981 0.54816-0.92365 0.77125-0.26978 0.18941-0.59365 0.29077-0.82061 0.51396h-0.0519c0.16859-0.52915 1.0591-1.4357 1.4857-1.743 0.2205-0.16093 0.49686-0.20376 0.72251-0.36218zm-113.51 1.6931c0.79627 5e-3 0.97654 0.36067 1.4382 0.66821 0.07522 0.30236 0.12323 0.43324 0.10243 0.76508v0.0019c-0.15563 0.18941-0.3072 0.37763-0.46152 0.56579-0.13617 0.1011-0.28911 0.14123-0.40969 0.25667-0.88187-0.02492-0.91315-0.8897-1.2828-1.437 6e-3 -0.50445 0.19705-0.50606 0.40846-0.77063 0.11928-0.01016 0.14517-0.01006 0.20485-0.04999zm29.301 0.0012c0.0024 0.31385 0.16202 0.4911 0.10366 0.76755-0.18157 0.8378-0.56384 1.6823-0.8712 2.4137-0.20231 0.47227-0.29342 1.0359-0.61762 1.3808-0.06996 0.03999-0.63774-0.01016-0.77002-0.09996-0.19326-0.0038-0.38637 5e-3 -0.51088 0.04998v0.10242c0.8637 0.83649 1.7982 1.1223 2.9758 1.6449-0.16343 0.84942-1.0194 1.4159-1.437 2.054-0.2153 0-0.38892-0.01508-0.51212-0.10366-0.11808 0.01999-0.12703 0.02447-0.20484 0.05245 0.02102 0.75472 0.64871 1.3967 1.2803 1.5407 0.4241-0.47478 0.95571-0.7039 1.5925-0.97363 0.58229 0.6069 0.74926 1.4744 0.97362 2.46 0.09719 0.4303-0.061 0.90414 0.05183 1.2815 0.1971 0.66658 0.5528 0.86462 0.87182 1.3315h0.3591c0.22564-1.2061-0.32785-2.3759-0.61577-3.3343-0.08426-0.40811-0.16991-0.82126-0.25544-1.2322v-6.17e-4c-0.21409-0.35098-0.6358-0.44313-0.92489-0.71819-0.08943-0.02999-0.05181-0.0096-0.10243-0.04997 0.6614-0.34234 1.3654-0.72004 2.0528-1.0248 0.18416 0.20491 1.0389 1.0269 1.3346 0.86997 0.05193-0.01531 0.10243-0.02998 0.15302-0.04998-0.01695-0.29035-0.03249-0.58065-0.05183-0.87244-0.64714-0.64583-1.6005-1.1804-2.6704-1.3827v0.05058h-0.05059c0.12059 0.35383 0.51627 0.69226 0.82493 0.87121v0.15487c-0.60823 0.08845-1.1476 0.38201-1.6949 0.56641-0.37481 0.12034-0.82743 0.10397-1.1322 0.3048h-0.15179c0.22174-0.62119 0.95595-1.1295 1.3333-1.6431 0.74698-1.0064 1.3393-2.2411 2.5155-2.8222-0.03104-0.47327-1.3953-1.4521-1.8985-1.1291-0.12578 0.06592-0.03736-0.02485-0.10243 0.10119-0.07653 0.18691 0.17753 0.41604 0.10243 0.71819-0.09862 0.3953-1.0778 2.2568-1.3346 2.4643v0.05245c-0.52912-0.18042-0.93066-0.67788-1.4352-0.92427 0.08943-0.47227 0.48605-0.83534 0.71818-1.1803 0.58748-0.88705 1.0582-1.731 1.9491-2.3107-0.0071-0.68213-1.1087-1.3945-1.8479-1.3815zm6.0651 0.48743c-0.09431 0.0038-0.18266 0.02882-0.26161 0.08021-0.05193 0.01999-0.1025 0.02999-0.15178 0.04998 0 0.43828 0.21795 0.76862 0.10118 1.2303-0.23604 0.92211-0.7614 2.018-1.2321 2.774-0.28272 0.45378-0.89839 0.94588-0.92304 1.5943 0.83778-0.08301 1.0396-0.94804 1.6906-1.1828 0.18936 0.17492 0.37642 0.34614 0.56579 0.51335 0.26848 0.4033 0.21783 1.009 0.35787 1.5382 0.23992 1.1101 0.48084 2.2242 0.71819 3.3343 0.03248 0.55118 0.06797 1.0957 0.10427 1.6455 0.13617 0.49426 0.54442 1.3565 1.0748 1.4759v6.1e-4c0.08692 0.045 0.1581 0.0248 0.25667-0.0506 0.18025-0.14647 0.08168-0.40554 0.20608-0.61577 0.28791-0.2064 0.79768-0.15294 1.1816-0.2579 1.0492-0.27636 2.2734-0.25667 3.4367-0.51335 0.55116-0.12034 1.4628 0.20692 1.8985-0.0506 0.05182-0.02 0.10506-0.0345 0.15301-0.0555-0.02447-0.67049-1.3083-0.95589-2.0034-0.76262-0.30735 0.0854-0.6656 0.27617-0.97424 0.35663-0.23994 0.02-0.47952 0.0348-0.71943 0.05-0.08036-0.8352-0.49266-1.4836-0.51211-2.3563 0.77163-0.01531 1.739-0.11781 2.2551-0.40969-0.0095-0.25936-0.05838-0.2593-0.15302-0.40722-0.58748-0.139-1.595-0.16329-2.0528 0.15055-0.12969-5e-3 -0.19124-0.0051-0.25606-0.0506-0.28661-0.36332-0.15031-1.1038-0.40969-1.4864v-0.20494c0.55246-0.11945 1.4551-0.21766 1.7443-0.61577 0.04-0.05302 0.018-0.01539 0.0506-0.10119-0.04644-0.04505-0.06613-0.08765-0.10243-0.15425-0.80276-0.20242-1.1503-0.06358-1.8454 0.20485-0.21659-0.69382 0.04429-1.2437-0.66636-1.437 0.15173-0.26338 0.65591-0.2514 0.97362-0.35786 0.49541-0.16341 1.0596-0.38363 1.4888-0.61454 0.03355-0.08845 0.0088-0.05227 0.05245-0.10427-0.02841-0.25937-0.10162-0.25025-0.2067-0.40969-0.74051-0.05694-1.3318 0.0152-1.7455 0.40969h-0.09872c0.06101-0.3823 0.30008-0.9313 0.5115-1.2309 0.14524-0.20988 0.41218-0.18115 0.51335-0.46152h0.05183v-0.0543c-0.10507-0.13488-0.20607-0.27328-0.30851-0.40722-0.24124-0.16841-0.58915-0.18576-0.82-0.36218-0.34108-5e-3 -0.66761-5e-3 -0.8712 0.10242 0.02699 0.1974 0.11527 0.32159 0.15425 0.46152 0.14134 0.52913-0.36804 2.1649-0.56517 2.4112-0.15953 0.19991-2.0117 0.8712-2.5149 0.71942-0.11928-0.03999-0.46669-0.21277-0.56395-0.30974-0.04155-0.05049-0.01947-0.01016-0.05182-0.09996 0.72754-0.68343 1.2512-2.2069 2.2576-2.5143 0.01791-0.08301 0.03479-0.17035 0.05307-0.25482-0.22013-0.22694-1.1816-1.2359-1.8417-1.2093zm77.73 0.17585-0.31282 0.0019c-0.30866 0.26189-0.73886 0.38357-1.076 0.61577-0.51874 0.36582-0.98318 0.85475-1.4864 1.2322-0.22954 0.17394-0.56435 0.32808-0.72128 0.56518-0.25808 0.38782-0.2073 1.0454-0.51334 1.3839v0.20361c0.40719-0.148 0.60196-0.6267 0.92489-0.87182 0.39814-0.29837 0.72974-0.69525 1.1279-0.97795 0.24896-0.17243 0.53332-0.26837 0.77063-0.46028 0.16212 0.03011 0.14905 0.0506 0.25791 0.10551-0.027 1.3033-0.71214 2.2222-1.1297 3.1819-0.12046 0.27887-0.15685 0.71497-0.35786 0.92118-0.096 0.09844-0.29702 0.12144-0.40722 0.20299-0.34237 0.37732-0.68481 0.75219-1.0298 1.1322-0.32419 0.44629-0.47311 1.0415-0.81937 1.4864-3e-3 0.14798-3e-3 0.27989 0.0476 0.35786 0.0531 0.03999 0.1431 0.07681 0.20793 0.10427 0.66142-0.62634 1.302-1.1508 1.8467-1.9004 0.85334-1.1724 1.2786-2.6544 1.8998-4.0525 0.38907-0.88571 0.95225-1.7561 0.92243-3.027-0.0612-0.05834-0.10913-0.13236-0.15179-0.20484zm-75.539 4.4449c0.05166 0.0031 0.08935 0.01016 0.10798 0.02221 0.54469 0.25288 0.3499 1.0543 0.66636 1.5407-0.1077 0.25136-1.3578 0.63137-1.7443 0.66636-0.06877-0.54338-0.15924-1.6547-0.51458-1.9491 0.07157-0.12161 1.1229-0.30161 1.4845-0.28012zm0.87677 2.2292h0.052439c0.0985 0.46678 0.15415 1.2682 0.41093 1.6431-0.18416 0.45127-1.3175 0.41156-1.7455 0.66945-0.17896-0.10743-0.41488-1.396-0.40969-1.7461 0.39152-0.03491 1.4074-0.37296 1.6918-0.56641zm71.478 0.25297h0.10247c-0.066 0.51094-0.45406 0.96744-0.8237 1.184v0.05059h-0.0519c0.0893-0.61599 0.55783-0.78595 0.7731-1.2346zm-77.429 2.0034c-0.10375 0.44379 0.98585 1.4342 1.3321 1.6961 0.17247 0.12938 0.40432 0.42586 0.6676 0.30542 0.13488-0.0102 0.17619-0.0254 0.25791-0.0524 0.0597-0.13594 0.14909-0.31111 0.05058-0.45905-0.02698-0.64457-1.7-1.3668-2.3082-1.4901zm6.5649 0.05059c0.04 0.47727 0.33431 1.8245 0.56517 2.1552 0.0012 0.0301 0.0012 0.0704 0.0012 0.10426-0.61861 0.13244-1.2617 0.30976-1.9504 0.30727-0.10626-0.73144-0.45638-1.3758-0.46028-2.1552 0.78719-0.01531 1.1932-0.33108 1.8442-0.41154zm-9.492 0.61454c-0.07784 0.17491-0.0687 0.45962-0.15178 0.66698-0.44354 1.0894-0.58882 1.3161 0.10242 2.36 0.30735 0 0.34924-0.0499 0.51397-0.15425 0.2036-0.85203 0.2357-2.4733-0.46461-2.8728zm53.832 0.10489c-1.0829 0.03011-2.2788 2.446-1.1791 3.1813 0.58747 0.39928 2.2619 0.16741 2.9764 0 0.39686-0.092 1.0157-0.1803 1.3321 0.05 0.43053 0.32034 0.35403 1.5332 0.20361 2.2089-0.17117 1.2644-0.34408 2.5299-0.51396 3.7983-0.1518 0.76907-0.30588 1.5366-0.46152 2.307 0.78592-5e-3 1.5281-0.80798 1.7498-1.3864 0.12969-0.33435 0.0609-0.6507 0.15425-1.0255 0.27107-1.0764 0.30709-2.3603 0.56518-3.4873 0.16472-0.73015 0.0532-1.4264 0.20237-2.1021 0.11148-0.50965 0.18537-2.1996 0.0531-2.6704-0.0792-0.26088-0.27981-0.46603-0.41339-0.66945-1.4966-0.36983-2.756 0.36935-4.3122 0.25791-0.14784-0.15694-0.25936-0.24674-0.35663-0.46214zm-74.768 8.0482c-0.18498-4.5e-4 -0.29358 0.0371-0.35292 0.2104-0.12577 0.28285 0.27164 0.67576 0.40908 0.87553 0.35143 0.49425 0.75299 1.0715 1.2315 1.4321 0.35792 0.27086 0.76672 0.50798 1.0767 0.82308h0.15425c-0.19969-0.55241-0.78998-0.85171-1.2309-1.1785-0.4033-0.29686-0.58198-0.81981-0.92304-1.1791 0.02699-0.16191 0.04527-0.14893 0.10366-0.25791 1.4175 0.0105 2.3371 1.3129 2.9752 2.1558 0.28531 0.37732 0.74019 0.5979 0.77002 1.2334-0.15043 0-0.28006-5e-5 -0.35786-0.053h-0.15425c0.24383 0.6769 1.0686 0.62068 1.6431 0.97733 1.1516 0.71195 2.079 1.8277 3.0776 2.716 0.33978 0.30334 0.9321 0.60439 1.0255 1.1322-0.69642-0.035-1.1889-0.4246-1.6351-0.72004-0.79627-0.51873-2.0713-1.4263-2.6186-2.1552-0.10375-0.13487-0.13731-0.34135-0.2579-0.46029-0.14138-0.14387-0.3384-0.18831-0.46029-0.35724h-0.20485c-0.05062 0.53168 0.52759 0.91453 0.86998 1.2297 1.0621 0.97268 2.1994 1.8703 3.5404 2.5667 0.48371 0.2479 1.3654 0.67548 1.8997 0.35664-0.0714-0.734-0.91027-1.3293-1.3901-1.6924v-6.2e-4c-0.17506-0.13243-0.29686-0.36668-0.46152-0.5121-0.61343-0.54471-1.3343-1.0712-2.0009-1.5407-0.55245-0.3863-1.3071-0.61703-1.7986-1.0748-0.0129-0.11139 0.15944-0.38403 0.05306-0.66944-0.43445-1.162-2.0608-2.507-3.0788-3.1282-0.47077-0.29185-1.2606-0.42497-1.6924-0.71943-0.07976-5e-3 -0.14996-9e-3 -0.21163-9e-3zm29.865 7.5552c-0.21659 0.13487-0.65205 0.0245-0.92179 0.10057-0.37352 0.0985-0.60147 0.28938-0.87122 0.46029-0.0095 1.2592 1.8748 1.9401 2.924 2.2021 0.62639 0.15942 1.1788-0.13466 1.5407-0.25668 0.27883-1.0634-1.0064-1.2188-1.5912-1.7467h-0.10489v-0.05c3.9373-0.15443 6.884 0.94553 9.1341 2.6198 0.56154 0.41778 1.2061 1.0155 1.4888 1.6937 0.10507 0.25189 0.15044 0.66808 0 0.87428-0.20619 0.57064-0.88834 0.51979-1.5407 0.66761-1.507 0.34633-3.5731-0.50726-4.2604-1.1803-0.14009 0.24488 0.06352 0.62267-0.15302 0.87429-0.22825 0.6199-1.0219 0.45907-1.7455 0.61453-1.1892 0.25786-3.052-0.35112-3.7458-0.81937-0.19327-0.13487-0.33308-0.37063-0.51335-0.51335-0.0084-0.13351-0.02345-0.17656-0.05307-0.25852 0.10507-0.0946 0.22944-0.24278 0.30727-0.35725 1.4771-0.10996 2.228-0.0349 3.0813 0.77311-0.02197 0.1011-0.01282 0.0951-0.05306 0.14807-0.09587 0.19691-0.31757 0.22005-0.61454 0.20856v0.0962c0.54078 5e-3 0.76871-0.0764 1.0761-0.25543 0.01695-0.10236 0.0356-0.20657 0.05244-0.30602-0.17636-0.1829-0.29996-0.42491-0.51396-0.56765-0.84296-0.55248-2.582-0.83128-3.5391-0.20237-0.15044 0.72754 0.30119 1.1201 0.71881 1.4327 0.83776 0.63289 1.5441 0.99998 2.7204 1.3346 0.37738 0.1065 0.71345 9e-3 1.1297 0.0988 0.36312 0.083 0.9922 0.10236 1.3852 0 0.6536-0.16591 1.5625-0.85379 0.81939-1.6449v-0.0493c0.38775 0.14143 0.70568 0.52095 1.0779 0.72066 0.98692 0.51486 2.6212 0.94187 4.1074 0.61763 0.72885-0.16193 1.4818-0.16213 1.6894-0.8237 0.23214-0.35933-0.08832-0.86621-0.20238-1.0711-0.47857-0.85594-1.1087-1.4135-1.8997-1.9504v3e-3c-2.6119-1.7884-6.4652-3.5988-10.929-3.4873zm-0.20608 0.72127c0.65102-1e-3 1.2398 0.12895 1.6418 0.40228v6.1e-4c0.18157 0.12186 0.28576 0.37712 0.46214 0.51335-0.0036 0.12938-0.0052 0.19197-0.05245 0.25791-0.33328 0.90393-2.212 0.23608-2.6685-0.10494-0.14268-0.10394-0.1984-0.32112-0.30604-0.45906 0.01947-0.10649 0.01282-0.0985 0.05305-0.15054 0.14009-0.39681 0.54057-0.26377 0.86998-0.45967zm48.748 0.91624c-0.33979 0.27087-0.89745 0.30625-1.2852 0.51397-0.34108 0.1829-0.75382 0.43047-1.0754 0.6676-0.26848 0.1919-0.42244 0.54192-0.66883 0.76753 5e-3 0.25539 0.01 0.29724 0.20731 0.35972 0.05049 0.04 0.01297 0.0247 0.09749 0.0519 0.05441-0.061 0.10363-0.0814 0.15548-0.15548 0.04302-0.0301-0.03488-0.1345-0.05183-0.30048 0.49801-0.50061 0.86495-0.77564 1.5925-1.0791 0.18675-0.0764 0.57934-0.30218 0.82184-0.15426h0.10242c-0.0335 0.50711-1.1879 2.0631-1.5406 2.3094v0.1487c0.94543-0.24389 1.5761-2.1304 2.2076-2.8191-0.0168-0.11641-0.0126-0.14409-0.0518-0.20362l3e-3 -0.10674zm-1.5956 1.8016c-1.184 0.17892-1.2801 1.3515-1.9972 1.9948l6.18e-4 1e-3c-0.30346 0.27087-1.0468 0.29663-1.3827 0.56393h-0.05306c0.13487-0.19342 0.37716-0.27612 0.51334-0.45905 0.09858-0.13488 0.1388-0.29365 0.25544-0.40907-0.02353-0.10507-0.01214-0.0973-0.04998-0.15178v-0.10425c-1.4979-0.27484-3.9996 1.0172-4.7725 1.6968-0.201 0.1749-0.32203 0.43543-0.51396 0.61822 5e-3 0.14387 0.0211 0.2181 0.05059 0.30603 0.90911 0.061 2.6148-0.49693 2.8197-1.2309 0.03998-0.0301 0.01531-3e-3 0-0.0519v-0.10246c-0.62119-0.035-1.4578 0.0974-1.8442 0.46029h-0.05059c0.33719-0.51356 1.586-0.96763 2.2551-1.1803 0.22303-0.0684 0.71343-0.19348 0.92612-0.0506 0.04783 0.0199 0.09935 0.0302 0.15117 0.0506-0.12185 0.51355-0.85213 1.087-1.3346 1.2309v0.10361c0.78721-0.18289 1.5087-0.53907 2.2052-0.82184 0.47727-0.19341 1.0194-0.2443 1.437-0.51396 0.29701-0.19341 1.3067-1.5652 1.3846-1.9504zm-6.0509 3.0221v0.15362c-0.09717 0.0635-0.16716 0.20283-0.25667 0.25482-0.26586 0.1554-0.62138 0.13713-0.87429 0.3085-0.11666-0.0153-0.14151-9e-3 -0.20238-0.053h-0.0506c0.13884-0.43677 0.9845-0.63665 1.3839-0.66389zm-25.141 4.5134c-0.1595 0.1065-0.40436 0.0452-0.61577 0.10246-0.26197 0.0764-0.55283 0.19429-0.7694 0.30974 0.03355 0.087 0.01006 0.0499 0.05244 0.1 0.30864 0.24388 2.1058 0.25787 2.4637 0h0.10119v-0.1c-0.54339-0.17391-1.5341 0.25937-1.9491 0h-0.05306v-0.053c1.3643-0.0946 2.8922-0.0567 4.3122-0.0519-0.13617 0.0934-0.42576 0.0658-0.5658 0.15425-0.05062 0.0199-0.10118 0.0351-0.15178 0.0506v0.10424c0.30865 0.0502 0.61635 0.10089 0.92242 0.15179 0.048 0.053-0.0048 5e-3 0.0506 0.05-0.45394 0.30235-1.6262 0.18058-2.0503-0.05v-0.10424c-0.23084-0.10651-1.2852 0.10948-1.4888 0.15239-0.17247 0.04-0.35051-0.0198-0.46337 0.0506-0.214 0.0153-0.23469 0.0399-0.35787 0.10246 0.02854 0.16591 0.0454 0.14873 0.10366 0.25668 0.33069 0.0779 0.90287 0.083 1.2803 0.20238v-0.0506h0.05183v-0.05c-0.19196-0.0741-0.72518-0.0305-0.92489-0.14931h-0.10242c0.17117-0.13488 1.8484-0.36016 2.157-0.15425 0.08692 0.0301 0.0506 9e-3 0.10242 0.0506-0.27362 0.0502-0.55014 0.10393-0.82247 0.15177 0.03248 0.0854 0.01182 0.0507 0.05183 0.10111 0.0843 0.0584 0.25016 0.0586 0.40969 0.0506-0.05193 0.0959-0.06989 0.14137-0.15425 0.20485 0.01695 0.0301 0.03488 0.0657 0.05183 0.1011 0.72755 0 1.3371-0.0741 1.9479-0.20236 0.36312-0.0804 0.80945 0.0677 1.0779-0.10362h0.41092v-0.1011c-0.69901-3e-3 -2.4442-0.0716-2.8721 0.20485h-0.15178c0.04299-0.0555-0.0049-5e-3 0.04936-0.053 0.20101-0.23338 0.61056-0.11641 0.97239-0.20238 0.57061-0.13488 1.5152-0.3683 2.0028 0 0.13618 0.083 0.05137-9e-3 0.04999 0.15179 0.13877-3e-3 0.23472-3e-3 0.30603-0.045h0.35971v-0.10484c-0.46556-0.11402-1.1529-0.32522-1.5407-0.5627-0.22043-0.13486-0.11931-0.32226-0.5084-0.35725l-6.21e-4 -2e-3c0.01947-0.0499 0.03245-0.10089 0.0506-0.15178-1.2657-0.052-2.5327-0.10299-3.7958-0.15487z" style="fill:#000000;paint-order:stroke markers fill"/></g></svg>
